<?xml version="1.0" encoding="utf-8"?>
<!-- Generator: Adobe Illustrator 20.1.0, SVG Export Plug-In . SVG Version: 6.00 Build 0)  -->
<svg version="1.1" id="Layer_1" xmlns="http://www.w3.org/2000/svg" xmlns:xlink="http://www.w3.org/1999/xlink" x="0px" y="0px"
	 viewBox="0 0 1920 1080" style="enable-background:new 0 0 1920 1080;" xml:space="preserve">
<style type="text/css">
	.st0{fill:#FFFFFF;}
</style>
<g>
	<path class="st0" d="M1384.4,62.4h-45.8c-10.9,0-19.7,8.8-19.7,19.7v24.5c0,10.9-8.8,19.7-19.7,19.7h-42.7
		c-10.9,0-19.7-8.8-19.7-19.7V82.1c0-10.9-8.8-19.7-19.7-19.7H702.9c-10.9,0-19.7,8.8-19.7,19.7v24.5c0,10.9-8.8,19.7-19.7,19.7
		h-42.7c-10.9,0-19.7-8.8-19.7-19.7V82.1c0-10.9-8.8-19.7-19.7-19.7h-44.3c-10.9,0-19.7,8.8-19.7,19.7v886.3
		c0,10.9,8.8,19.7,19.7,19.7h44.3c10.9,0,19.7-8.8,19.7-19.7v-18c0-10.9,8.8-19.7,19.7-19.7h42.7c10.9,0,19.7,8.8,19.7,19.7v18
		c0,10.9,8.8,19.7,19.7,19.7h514.2c10.9,0,19.7-8.8,19.7-19.7v-18c0-10.9,8.8-19.7,19.7-19.7h42.7c10.9,0,19.7,8.8,19.7,19.7v18
		c0,10.9,8.8,19.7,19.7,19.7h45.8c10.9,0,19.7-8.8,19.7-19.7V82.1C1404.1,71.2,1395.3,62.4,1384.4,62.4L1384.4,62.4z M683.2,816.1
		c0,10.9-8.8,19.7-19.7,19.7h-42.7c-10.9,0-19.7-8.8-19.7-19.7v-42.7c0-10.9,8.8-19.7,19.7-19.7h42.7c10.9,0,19.7,8.8,19.7,19.7
		V816.1z M683.2,639.1c0,10.9-8.8,19.7-19.7,19.7h-42.7c-10.9,0-19.7-8.8-19.7-19.7v-42.7c0-10.9,8.8-19.7,19.7-19.7h42.7
		c10.9,0,19.7,8.8,19.7,19.7V639.1z M683.2,462.1c0,10.9-8.8,19.7-19.7,19.7h-42.7c-10.9,0-19.7-8.8-19.7-19.7v-42.7
		c0-10.9,8.8-19.7,19.7-19.7h42.7c10.9,0,19.7,8.8,19.7,19.7V462.1z M683.2,285.1c0,10.9-8.8,19.7-19.7,19.7h-42.7
		c-10.9,0-19.7-8.8-19.7-19.7v-42.7c0-10.9,8.8-19.7,19.7-19.7h42.7c10.9,0,19.7,8.8,19.7,19.7V285.1z M1151.6,883.9
		c0,10.9-8.8,19.7-19.7,19.7H789.6c-10.9,0-19.7-8.8-19.7-19.7V725.6c0-10.9,8.8-19.7,19.7-19.7h342.4c10.9,0,19.7,8.8,19.7,19.7
		V883.9z M1151.6,604.3c0,10.9-8.8,19.7-19.7,19.7H789.6c-10.9,0-19.7-8.8-19.7-19.7V446.1c0-10.9,8.8-19.7,19.7-19.7h342.4
		c10.9,0,19.7,8.8,19.7,19.7V604.3z M1151.6,324.8c0,10.9-8.8,19.7-19.7,19.7H789.6c-10.9,0-19.7-8.8-19.7-19.7V166.5
		c0-10.9,8.8-19.7,19.7-19.7h342.4c10.9,0,19.7,8.8,19.7,19.7V324.8z M1318.9,816.1c0,10.9-8.8,19.7-19.7,19.7h-42.7
		c-10.9,0-19.7-8.8-19.7-19.7v-42.7c0-10.9,8.8-19.7,19.7-19.7h42.7c10.9,0,19.7,8.8,19.7,19.7V816.1z M1318.9,639.1
		c0,10.9-8.8,19.7-19.7,19.7h-42.7c-10.9,0-19.7-8.8-19.7-19.7v-42.7c0-10.9,8.8-19.7,19.7-19.7h42.7c10.9,0,19.7,8.8,19.7,19.7
		V639.1z M1318.9,462.1c0,10.9-8.8,19.7-19.7,19.7h-42.7c-10.9,0-19.7-8.8-19.7-19.7v-42.7c0-10.9,8.8-19.7,19.7-19.7h42.7
		c10.9,0,19.7,8.8,19.7,19.7V462.1z M1318.9,285.1c0,10.9-8.8,19.7-19.7,19.7h-42.7c-10.9,0-19.7-8.8-19.7-19.7v-42.7
		c0-10.9,8.8-19.7,19.7-19.7h42.7c10.9,0,19.7,8.8,19.7,19.7V285.1z M1318.9,285.1"/>
</g>
</svg>
